<?xml version="1.0" encoding="UTF-8"?>
<svg viewBox="298 538 723 723" xmlns="http://www.w3.org/2000/svg">
 <g id="icon" fill="#ffffff">
  <path d="m530.25 562.28c81.16-31.5 173.75-32.16 255.35-1.84 41.66 15.34 80.38 38.54 113.7 67.86-23.46 23.63-47.07 47.1-70.58 70.67-45.44-38.3-104.23-60.39-163.67-61.13-42.5-.87-85.18 8.86-123.08 28.13-32.16 16.28-60.89 39.29-83.83 67.1-23.19 28.01-40.47 60.92-50.28 95.95-17.78 62.81-11.03 132.21 18.92 190.25 17.34 33.93 42.17 63.98 72.21 87.42 30.74 24.07 66.92 41.18 105.09 49.47 47.41 10.42 97.72 7.4 143.49-8.8 29.49-10.4 57.08-26.15 81.04-46.25 23.55 23.54 47.15 47.05 70.61 70.68-27.74 24.36-59.18 44.52-92.97 59.42-82.83 36.83-179.63 40.56-265.12 10.51-71.54-24.82-134.66-72.91-177.81-135.1-28.74-41.13-48.74-88.33-58.21-137.6-8.78-45.45-8.78-92.58 0-138.03 14.71-77.28 55.84-149.07 114.67-201.23 32.38-28.88 69.98-51.9 110.47-67.48z"/>
  <path d="m861.49 731.71c23.51-23.56 47.07-47.08 70.61-70.61 24.79 28.17 45.2 60.18 60.17 94.6 35.87 81.78 39.58 176.98 10.54 261.4-15.29 44.76-39.55 86.39-70.8 121.88-23.53-23.53-47.09-47.05-70.61-70.61 23.07-27.61 40.51-59.92 50.61-94.46 13.61-46.31 14.08-96.4 1.38-142.96-9.85-36.33-27.8-70.36-51.9-99.24z"/>
  <path d="m573.95 684.03c54.78-22.19 118.15-22.18 172.92.04-.02 32.23-.02 64.46-.01 96.69-28.85 28.83-57.62 57.73-86.54 86.48-28.8-28.75-57.55-57.55-86.34-86.31-.05-32.3 0-64.6-.03-96.9z"/>
  <path d="m444.27 813.61c32.27-.2 64.55-.03 96.82-.09 28.87 28.81 57.7 57.64 86.54 86.48-28.87 28.87-57.73 57.73-86.63 86.57-32.2-.02-64.4.03-96.6-.03-22.14-54.82-22.09-118.06-.13-172.93z"/>
  <path d="m693.06 900c28.91-28.83 57.68-57.79 86.68-86.52 32.2.1 64.4.02 96.6.04 22.17 54.85 22.11 118.19-.02 173.04-32.2.02-64.4-.01-96.6.02-28.92-28.82-57.77-57.72-86.66-86.58z"/>
  <path d="m660.3 932.76c28.95 28.76 57.71 57.71 86.57 86.57-.02 32.2-.02 64.39 0 96.59-54.77 22.23-118.14 22.24-172.91.05.01-32.27-.02-64.53.01-96.8 28.78-28.8 57.55-57.6 86.33-86.41z"/>
 </g>
</svg>
